<?xml version="1.0" standalone="no"?>
<!DOCTYPE svg PUBLIC "-//W3C//DTD SVG 20010904//EN"
 "http://www.w3.org/TR/2001/REC-SVG-20010904/DTD/svg10.dtd">
<svg version="1.0" xmlns="http://www.w3.org/2000/svg"
 width="330.000000pt" height="141.000000pt" viewBox="0 0 330.000000 141.000000"
 preserveAspectRatio="xMidYMid meet">

<g transform="translate(0.000000,141.000000) scale(0.100000,-0.100000)"
fill="#000000" stroke="none">
<path d="M1378 1123 c6 -2 12 -18 12 -34 0 -22 5 -29 20 -29 15 0 20 7 20 25
0 24 2 25 63 25 85 0 142 -29 175 -91 23 -42 24 -50 18 -164 -5 -96 -9 -122
-23 -132 -14 -11 -10 -13 31 -13 42 0 47 2 36 15 -9 11 -11 43 -6 124 8 123
-2 162 -57 219 -42 43 -109 62 -216 61 -47 0 -80 -3 -73 -6z"/>
<path d="M1676 1122 c6 -4 19 -25 30 -47 17 -37 19 -38 24 -15 7 27 3 35 102
-229 24 -62 48 -114 53 -114 6 0 44 82 86 182 l76 182 6 -68 c11 -115 8 -278
-5 -291 -9 -9 -3 -12 27 -12 33 0 36 2 22 13 -23 17 -38 384 -16 398 10 6 3 9
-21 9 l-35 0 -74 -180 c-40 -99 -75 -180 -76 -180 -1 0 -33 81 -71 180 l-68
180 -35 0 c-20 0 -31 -4 -25 -8z"/>
<path d="M1396 967 c-18 -13 -18 -14 -2 -20 13 -5 15 -13 10 -29 -9 -28 -6
-80 5 -88 4 -3 12 -13 18 -24 8 -15 11 -10 17 32 3 27 2 60 -3 73 -4 13 -5 34
0 47 7 18 5 22 -9 22 -10 0 -26 -6 -36 -13z"/>
<path d="M1313 831 c-13 -11 -23 -24 -23 -30 0 -20 16 -11 33 19 21 35 20 36
-10 11z"/>
<path d="M1635 789 c-27 -30 -93 -59 -137 -59 -30 0 -41 6 -67 38 -29 35 -30
36 -31 13 0 -14 -7 -33 -17 -43 -9 -10 -11 -18 -5 -18 6 0 14 5 18 11 4 8 9 7
16 -2 5 -9 6 -3 2 16 l-7 30 25 -29 c22 -26 32 -30 75 -29 55 1 140 33 149 57
11 29 -1 38 -21 15z"/>
<path d="M815 360 l0 -80 37 0 c51 0 84 17 98 51 13 30 7 61 -16 84 -23 22
-40 18 -20 -4 24 -26 24 -91 0 -108 -10 -7 -31 -13 -47 -13 l-29 0 4 75 c2 62
0 75 -12 75 -12 0 -15 -16 -15 -80z"/>
<path d="M1037 427 c-3 -8 -2 -18 3 -23 5 -5 10 -18 12 -29 1 -11 7 -23 12
-26 5 -4 9 -21 10 -38 1 -25 5 -31 24 -31 21 0 21 2 8 23 -7 12 -22 45 -31 72
-22 59 -30 71 -38 52z"/>
<path d="M1164 360 c17 -44 34 -80 37 -80 4 0 9 9 12 20 3 11 1 18 -3 15 -9
-5 -40 78 -40 107 0 11 -7 18 -19 18 -17 0 -15 -7 13 -80z"/>
<path d="M1234 399 l0 -40 18 33 c22 42 22 48 1 48 -14 0 -18 -9 -19 -41z"/>
<path d="M1308 375 c3 -43 0 -70 -8 -80 -10 -13 -9 -15 11 -15 23 0 24 2 24
80 0 66 -3 80 -15 80 -13 0 -15 -11 -12 -65z"/>
<path d="M1375 360 l0 -80 37 0 c51 0 84 17 98 51 13 30 7 61 -16 84 -22 22
-40 19 -21 -3 21 -23 22 -86 1 -106 -8 -9 -29 -16 -46 -16 l-30 0 4 75 c2 62
0 75 -12 75 -12 0 -15 -16 -15 -80z"/>
<path d="M1622 418 c9 -13 27 -47 43 -77 19 -39 29 -50 35 -40 5 7 5 16 0 19
-4 3 -19 31 -33 63 -17 36 -32 57 -43 57 -15 0 -15 -2 -2 -22z"/>
<path d="M1750 420 c-7 -14 -7 -20 0 -20 14 0 13 -93 -2 -108 -9 -9 -6 -12 13
-12 25 0 25 0 18 63 -5 34 -6 70 -3 80 7 24 -13 22 -26 -3z"/>
<path d="M1893 433 c21 -3 32 -13 43 -38 19 -47 18 -62 -11 -90 -13 -14 -20
-25 -14 -25 22 0 59 50 59 80 0 41 -39 81 -77 79 l-28 -2 28 -4z"/>
<path d="M2005 360 c0 -66 3 -80 15 -80 12 0 15 8 12 35 -5 38 11 47 28 16 19
-37 41 -51 79 -51 36 0 37 1 33 32 l-5 31 -14 -26 c-18 -35 -37 -34 -64 4 -20
29 -21 32 -6 41 23 12 21 55 -2 68 -28 14 -38 13 -17 -3 25 -18 18 -61 -11
-65 -21 -3 -23 1 -23 37 0 26 -5 41 -12 41 -9 0 -13 -23 -13 -80z"/>
<path d="M2197 427 c-3 -8 -1 -19 3 -23 5 -5 11 -18 13 -29 2 -11 9 -30 16
-43 7 -13 10 -30 7 -38 -3 -9 1 -14 14 -14 11 0 20 2 20 4 0 5 -60 149 -64
153 -2 2 -6 -3 -9 -10z"/>
<path d="M2305 360 l0 -80 46 0 c39 0 48 3 52 21 5 19 4 20 -12 5 -10 -9 -27
-16 -39 -16 -21 0 -22 5 -22 75 0 53 -4 75 -12 75 -9 0 -13 -23 -13 -80z"/>
<path d="M2370 425 c7 -8 16 -15 21 -15 5 0 6 7 3 15 -4 8 -13 15 -21 15 -13
0 -13 -3 -3 -15z"/>
<path d="M2475 433 c11 -2 26 -12 33 -21 13 -16 13 -15 10 3 -2 14 -12 21 -33
22 -18 1 -22 -1 -10 -4z"/>
<path d="M1838 413 c-24 -28 -28 -50 -17 -83 11 -29 35 -50 60 -50 6 0 0 9
-15 21 -28 22 -35 73 -16 110 13 24 8 25 -12 2z"/>
<path d="M2435 411 c-9 -28 3 -46 38 -62 24 -10 32 -20 31 -38 -1 -22 0 -23
12 -6 18 24 1 53 -37 67 -28 10 -33 18 -30 46 3 19 -7 14 -14 -7z"/>
<path d="M1622 362 c-1 -24 -7 -52 -12 -63 -9 -17 -7 -19 16 -19 20 0 24 3 16
13 -6 7 -12 35 -15 62 l-3 50 -2 -43z"/>
<path d="M2362 371 c-10 -6 -10 -10 3 -21 13 -11 15 -9 15 9 0 24 0 24 -18 12z"/>
<path d="M994 324 l-21 -44 22 0 c18 0 21 4 17 25 -2 14 1 31 7 39 7 8 8 16 4
19 -4 2 -17 -15 -29 -39z"/>
<path d="M2427 301 c4 -16 13 -21 37 -20 21 1 25 3 11 6 -11 3 -28 12 -37 20
-15 13 -16 13 -11 -6z"/>
</g>
</svg>
